<svg version="1.1" id="stripes" xmlns="http://www.w3.org/2000/svg" x="0" y="0" viewBox="0 0 141.73 141.73" xml:space="preserve">
  <style>
    .st0{fill:#fff}.st2{fill:#c9202d}
  </style>
  <circle class="st0" cx="70.93" cy="70.84" r="68.06"/>
  <path d="M70.93 2.78c-14.56 0-28.04 4.59-39.11 12.38h38.85v18.37H31.53v29.93H12.35V36.19c-6.01 10.16-9.48 22-9.48 34.65 0 37.59 30.47 68.06 68.06 68.06s68.06-30.47 68.06-68.06S108.52 2.78 70.93 2.78z" fill="#272962"/>
  <path class="st0" d="M43.36 80.08l3.69 9.34 9.6-2.94-5 8.7 8.28 5.68-9.92 1.51.73 10.02-7.38-6.82-7.37 6.82.73-10.02-9.93-1.51 8.29-5.68-5-8.7 9.6 2.94zM115.37 32.15l1.34 3.4 3.5-1.07-1.82 3.17 3.02 2.07-3.62.55.27 3.65-2.69-2.48-2.69 2.48.27-3.65-3.62-.55 3.02-2.07-1.82-3.17 3.5 1.07zM125.8 69.49l.79 2.22 2.36.01-1.86 1.45.71 2.24-1.94-1.33-1.92 1.38.66-2.26-1.9-1.4 2.36-.07zM114.97 89.87l1.34 3.4 3.5-1.07-1.82 3.17 3.02 2.07-3.62.55.27 3.65-2.69-2.48-2.69 2.48.27-3.65-3.62-.55 3.02-2.07-1.82-3.17 3.5 1.07zM92.32 54.82l1.35 3.4 3.5-1.07-1.83 3.18 3.02 2.06-3.62.56.27 3.64-2.69-2.48-2.68 2.48.26-3.64-3.62-.56 3.02-2.06-1.82-3.18 3.5 1.07zM70.61 63.42V50.36L21.73 23.85a68.057 68.057 0 00-8.46 10.86L66.2 63.42h4.41z"/>
  <path class="st2" d="M70.61 54.94L28.05 32.21l-2.09 3.89 44.65 23.85z"/>
  <path class="st0" d="M12.35 36.19v27.26h19.17V33.52h39.15V15.16H31.82a68.416 68.416 0 00-19.47 21.03z"/>
  <path class="st2" d="M16.15 30.46v32.99h11.58V29.98h42.92V18.39H27.73v-.14a68.355 68.355 0 00-11.58 12.21z"/>
</svg>
