<svg xmlns="http://www.w3.org/2000/svg" viewBox="0 0 141.73 141.73">
  <style>
    .st3{fill:#fff}
  </style>
  <circle cx="70.93" cy="70.84" r="68.06" fill="#009c49" id="disc"/>
  <circle cx="71.04" cy="70.72" r="32.55" fill="#26346f" id="Layer_8"/>
  <path d="M70.73 27.47L3.3 70.61l67.42 43.54 67.79-43.54-67.78-43.14zm.01 71.62c-15.74 0-28.5-12.76-28.5-28.5s12.76-28.5 28.5-28.5 28.5 12.76 28.5 28.5-12.76 28.5-28.5 28.5z" fill="#fee100" id="Layer_6"/>
  <path class="st3" d="M81.61 68.58c6.1 2.8 11.56 6.4 16.31 10.61.52-1.64.89-3.35 1.1-5.1-5.46-4.56-11.8-8.38-18.89-11.19-11.8-4.67-24.02-5.86-35.34-4.1-.68 1.5-1.24 3.06-1.66 4.68 12.48-2.17 25.89-.68 38.48 5.1z" id="Layer_7"/>
  <g id="Layer_10">
    <circle class="st3" cx="47.44" cy="65.61" r="1"/>
    <circle class="st3" cx="50.15" cy="77.31" r="1"/>
    <circle class="st3" cx="59.23" cy="85.74" r="1"/>
    <circle class="st3" cx="70.89" cy="83.36" r="1"/>
    <circle class="st3" cx="80.25" cy="59.92" r="1"/>
    <circle class="st3" cx="59.86" cy="71.7" r="1"/>
    <circle class="st3" cx="70.92" cy="75.11" r="1"/>
    <circle class="st3" cx="90.55" cy="80.49" r="1"/>
    <circle class="st3" cx="79.14" cy="89.66" r="1"/>
    <circle class="st3" cx="87.77" cy="86.89" r=".75"/>
  </g>
</svg>
