<svg version="1.1" id="Layer_8" xmlns="http://www.w3.org/2000/svg" x="0" y="0" viewBox="0 0 141.73 141.73" xml:space="preserve">
  <style>
    .st1{fill:#d52b27}
  </style>
  <circle cx="70.93" cy="70.84" r="68.06" fill="#fff"/>
  <path class="st1" d="M24.14 120.24v-98.8C11.05 33.85 2.87 51.38 2.87 70.84c0 19.46 8.18 37 21.27 49.4zM70.72 32.17l6.48 11.87-.14-.28c.35 1 1.58 1.47 2.75 1.06.18-.06.35-.15.51-.24h.06l4.73-2.59.03.07-3.42 18.33-.07.15c-.27 1.3-.03 2.39.67 2.72.62.29 1.46-.1 2.21-.91l.08-.13 7.89-8.98.01.03 1.23 4.43.04.1c.1.34.3.64.6.86.4.3.9.39 1.38.29l.1-.01 9.77-1.98.01-.02-3.1 11.03-.02.07c-.19.7-.02 1.41.51 1.83l.12.09.16.1 3.95 1.9v-.04L89.88 85.83l-.16.15c-.53.42-.89.96-.99 1.6-.07.42-.01.85.14 1.25l.03.17 1.45 4.45.05.13-16.94-2.38h-.14c-.58-.09-1.16.11-1.48.58-.18.26-.26.55-.25.86l-.03.11.71 18.23v.06l-3.16-.01-.03-.05.71-18.23-.03-.11c.01-.3-.07-.6-.25-.86-.33-.47-.91-.67-1.48-.58h-.14l-16.94 2.38.05-.13L52.46 89l.03-.17c.15-.4.21-.82.14-1.25-.1-.63-.46-1.18-.99-1.6l-.16-.15-17.36-13.91v.04l3.95-1.9.16-.1.12-.09c.52-.42.69-1.14.51-1.83l-.02-.07-3.1-11.03.01.02 9.77 1.98.1.01c.47.1.97.01 1.38-.29.3-.22.5-.52.6-.86l.04-.1 1.23-4.43.01-.03 7.89 8.98.08.13c.75.81 1.58 1.2 2.21.91.7-.32.93-1.42.67-2.72l-.07-.15-3.42-18.33.03-.07L61 44.58h.06c.16.1.32.18.51.24 1.17.41 2.4-.06 2.75-1.06l-.14.28 6.48-11.87h.06zM117.45 21.18v99.32c13.25-12.42 21.54-30.07 21.54-49.66s-8.29-37.24-21.54-49.66z"/>
</svg>
