<svg version="1.1" id="disc" xmlns="http://www.w3.org/2000/svg" x="0" y="0" viewBox="0 0 141.73 141.73" xml:space="preserve">
  <style>
    .st0{fill:#fff}
  </style>
  <path class="st0" d="M73.55 138.84c31.81-1.21 58.03-24.24 64.1-54.56h-64.1v54.56zM46.26 7.41C25.05 15.67 8.99 34.24 4.28 56.99h41.98V7.41zM137.58 56.99c-6.23-30.11-32.35-52.94-64.02-54.14v54.14h64.02zM46.26 134.27v-50H4.2c4.6 22.94 20.72 41.7 42.06 50z"/>
  <path d="M46.26 134.27a67.79 67.79 0 0024.67 4.63c.88 0 1.75-.03 2.62-.07V84.28h64.1a68.27 68.27 0 001.33-13.43c0-4.75-.49-9.38-1.41-13.86H73.55V2.85c-.87-.03-1.74-.07-2.62-.07-8.7 0-17.02 1.65-24.67 4.63v49.58H4.28c-.93 4.47-1.41 9.11-1.41 13.86 0 4.6.46 9.09 1.33 13.43h42.06v49.99z" fill="#253a7b"/>
</svg>
