<svg version="1.1" id="stripes" xmlns="http://www.w3.org/2000/svg" x="0" y="0" viewBox="0 0 141.73 141.73" xml:space="preserve">
  <style>
    .st0{fill:#fff}.st2{fill:#c9202d}
  </style>
  <circle class="st0" cx="70.93" cy="70.84" r="68.06"/>
  <path d="M70.93 2.78c-14.56 0-28.04 4.59-39.11 12.38h38.85v18.37H31.53v29.93H12.35V36.19c-6.01 10.16-9.48 22-9.48 34.65 0 37.59 30.47 68.06 68.06 68.06s68.06-30.47 68.06-68.06S108.52 2.78 70.93 2.78z" fill="#272962"/>
  <path class="st0" d="M70.61 63.42V50.36L21.73 23.85a68.057 68.057 0 00-8.46 10.86L66.2 63.42h4.41z"/>
  <path class="st2" d="M70.61 54.94L28.05 32.21l-2.09 3.89 44.65 23.85z"/>
  <path class="st0" d="M12.35 36.19v27.26h19.17V33.52h39.15V15.16H31.82a68.416 68.416 0 00-19.47 21.03z"/>
  <path class="st2" d="M16.15 30.46v32.99h11.58V29.98h42.92V18.39H27.73v-.14a68.355 68.355 0 00-11.58 12.21z"/>
  <path class="st0" d="M92.02 53.05l2.26 6.58 6.96.13-5.56 4.18 2.03 6.66-5.7-3.99-5.7 3.99 2.04-6.66-5.56-4.19 6.96-.12z"/>
  <path class="st2" d="M92.03 56.64l1.42 4.15 4.39.08-3.5 2.63 1.28 4.2-3.59-2.52-3.59 2.51 1.28-4.19-3.5-2.64 4.38-.07z"/>
  <path class="st0" d="M115.78 88.62l2.27 6.58 6.96.12-5.56 4.19 2.03 6.65-5.7-3.99-5.7 3.99 2.04-6.65-5.56-4.19 6.96-.12z"/>
  <path class="st2" d="M115.8 92.21l1.42 4.14 4.38.08-3.5 2.64 1.28 4.19-3.59-2.52-3.59 2.52 1.28-4.19-3.5-2.64 4.39-.08z"/>
  <g>
    <path class="st0" d="M114.98 27.7l2.27 6.58 6.96.13-5.56 4.18 2.03 6.66-5.7-3.99-5.7 3.99 2.04-6.66-5.56-4.19 6.96-.12z"/>
    <path class="st2" d="M115 31.29l1.42 4.15 4.39.07-3.51 2.64 1.29 4.19-3.6-2.51-3.59 2.51 1.29-4.19-3.5-2.64 4.38-.07z"/>
  </g>
</svg>
