<svg version="1.1" id="disc" xmlns="http://www.w3.org/2000/svg" x="0" y="0" viewBox="0 0 141.73 141.73" xml:space="preserve">
  <style>
    .st0{fill:#ee2b2c}.st1{fill:#fff}
  </style>
  <path class="st0" d="M74.94 138.77c30.3-1.76 55.26-23.34 62.14-51.97H74.94v51.97zM137.03 54.62c-6.97-28.5-31.88-49.96-62.09-51.71v51.71h62.09zM41.79 9.33C23.52 18 9.74 34.57 4.83 54.62h36.96V9.33zM41.79 132.36V86.81H4.77c4.85 20.17 18.67 36.84 37.02 45.55z"/>
  <path class="st1" d="M138.36 61.69c-.32-2.4-.76-4.75-1.33-7.07H74.94V2.91a66.85 66.85 0 00-4.01-.13c-1.19 0-2.36.03-3.54.09v58.82h70.97zM67.39 138.81c1.17.06 2.35.09 3.54.09 1.35 0 2.68-.05 4.01-.13V86.81h62.14c.56-2.31.99-4.67 1.3-7.07h-71v59.07zM49.34 6.3a67.94 67.94 0 00-7.55 3.03v45.3H4.83A65.81 65.81 0 003.5 61.7h45.84V6.3zM41.79 132.36a67.94 67.94 0 007.55 3.03V79.74H3.47c.31 2.4.75 4.75 1.3 7.07h37.02v45.55z"/>
  <path d="M49.34 135.39a68.22 68.22 0 0018.05 3.43V79.74h71c.38-2.92.6-5.88.6-8.9 0-3.11-.23-6.16-.63-9.15H67.39V2.87A68.22 68.22 0 0049.34 6.3v55.39H3.5c-.4 3-.63 6.05-.63 9.15 0 3.02.22 5.99.6 8.9h45.87v55.65z" fill="#222d64"/>
</svg>
