<svg version="1.1" id="disc" xmlns="http://www.w3.org/2000/svg" x="0" y="0" viewBox="0 0 141.73 141.73" xml:space="preserve">
  <style>
    .st1{fill:#a91f23}
  </style>
  <path d="M138.99 70.84c0-11.79-3-22.88-8.28-32.55H11.15c-5.28 9.67-8.28 20.76-8.28 32.55 0 11.7 2.95 22.71 8.15 32.32h119.81c5.21-9.61 8.16-20.62 8.16-32.32z" fill="#f0bf1a"/>
  <path class="st1" d="M70.93 138.9c25.89 0 48.4-14.46 59.91-35.74H11.02c11.51 21.28 34.02 35.74 59.91 35.74zM70.93 2.78c-25.8 0-48.24 14.35-59.78 35.51h119.57C119.17 17.14 96.73 2.78 70.93 2.78z"/>
</svg>
