<svg xmlns="http://www.w3.org/2000/svg" viewBox="0 0 141.73 141.73">
  <style>
    .st1{fill:#fff}
  </style>
  <circle cx="70.93" cy="70.84" r="68.06" fill="#e21f26" id="disc"/>
  <path class="st1" d="M65.41 97.85c-15 0-27.16-12.16-27.16-27.16s12.16-27.16 27.16-27.16c7.8 0 14.82 3.29 19.78 8.56-6.06-9.17-16.45-15.23-28.27-15.23-18.7 0-33.85 15.16-33.85 33.85 0 18.7 15.16 33.85 33.85 33.85 11.86 0 22.28-6.1 28.33-15.33-4.95 5.3-12 8.62-19.84 8.62z" id="Layer_5"/>
  <path class="st1" d="M95.22 54.99l7.17 9.49 11.37-3.49-6.81 9.75 6.83 9.74-11.38-3.47-7.14 9.51-.22-11.89-11.26-3.86 11.25-3.89z" id="Layer_6"/>
</svg>
