<svg version="1.1" id="cross" xmlns="http://www.w3.org/2000/svg" x="0" y="0" viewBox="0 0 141.73 141.73" xml:space="preserve">
  <style>
    .st0{fill:#fff}.st1{fill:#242963}.st2{fill:#c9202c}
  </style>
  <circle class="st0" cx="70.93" cy="70.84" r="68.06"/>
  <path class="st1" d="M71.09 56.81l48.25-33.79C107.01 10.53 89.88 2.78 70.93 2.78c-18.88 0-35.95 7.69-48.28 20.1l48.44 33.93zM132.52 99.83c4.15-8.79 6.47-18.62 6.47-28.98 0-10.48-2.37-20.4-6.6-29.26L90.87 70.66l41.65 29.17zM9.52 41.48c-4.26 8.89-6.64 18.85-6.64 29.36 0 10.43 2.35 20.31 6.55 29.15L51.25 70.7 9.52 41.48zM71.02 84.55l-48.59 34.02c12.35 12.54 29.51 20.33 48.5 20.33 19.02 0 36.22-7.81 48.57-20.4L71.02 84.55z"/>
  <path class="st2" d="M63.46 73.49L14 108.13c1.26 1.93 2.62 3.79 4.07 5.57l51.3-35.92h4.44l-.24.34L124 113.43c1.44-1.79 2.79-3.66 4.04-5.59L77.82 72.67v-3.98l50.08-35.07a69.688 69.688 0 00-4.06-5.58L74.53 62.58h-7.02L18.08 27.97a67.26 67.26 0 00-4.07 5.57l49.45 34.63v5.32z"/>
  <path class="st0" d="M54.41 137.22a68.634 68.634 0 0016.52 2.02c5.65 0 11.14-.7 16.4-1.99V87.39h49.98c1.32-5.3 2.03-10.84 2.03-16.54 0-5.71-.71-11.25-2.03-16.55H87.33V4.43a68.642 68.642 0 00-16.4-1.99c-5.7 0-11.23.71-16.52 2.02v49.83H4.56a68.385 68.385 0 00-2.03 16.55c0 5.71.71 11.24 2.03 16.54h49.85v49.84z"/>
  <g id="Layer_4">
    <path class="st2" d="M80.59 3.48c-3.16-.45-6.38-.7-9.66-.7-3.37 0-6.67.25-9.91.73v57.51H3.59c-.46 3.21-.72 6.48-.72 9.82 0 3.38.26 6.7.73 9.95h57.42v57.38c3.24.47 6.54.73 9.91.73 3.28 0 6.51-.25 9.66-.7V80.79h57.66a67.66 67.66 0 00.01-19.77H80.59V3.48z"/>
  </g>
</svg>
