<svg xmlns="http://www.w3.org/2000/svg" viewBox="0 0 141.73 141.73">
  <style>
    .st0{fill:#fff}.st1{fill:#c12033}
  </style>
  <g id="stripes">
    <circle class="st0" cx="70.93" cy="70.84" r="68.06"/>
    <path class="st1" d="M70.7 21.36h46.93C105.44 9.85 89.02 2.78 70.93 2.78c-.08 0-.15.01-.23.01v18.57zM70.7 49.79h64.96a68.123 68.123 0 00-6.59-14.34H70.7v14.34zM6.34 92.32c1.69 5.07 3.95 9.88 6.72 14.34H128.8c2.77-4.46 5.03-9.27 6.72-14.34H6.34zM138.59 78.22c.26-2.42.4-4.89.4-7.38 0-2.35-.12-4.67-.36-6.96H3.23a69.59 69.59 0 00-.36 6.96c0 2.49.14 4.96.4 7.38h135.32zM24.67 120.75c12.14 11.26 28.39 18.15 46.26 18.15 17.87 0 34.12-6.89 46.26-18.15H24.67z"/>
    <path d="M70.7 2.79c-11.83.04-22.95 3.1-32.63 8.45l.21.52 5 .32-3.86 3.2 1.24 4.85-4.23-2.68-4.23 2.68 1.24-4.85-.83-.68a68.622 68.622 0 00-14.93 13.88l.07.17 5 .32-3.86 3.2 1.24 4.85-4.23-2.68-3.9 2.47a67.734 67.734 0 00-9.14 34.04c0 2.45.14 4.88.39 7.26H70.7V2.79z" fill="#39386f"/>
  </g>
  <g id="stars">
    <path class="st0" d="M56.97 57.88l1.85 4.65 5 .32-3.86 3.2 1.24 4.85-4.23-2.68-4.23 2.68 1.24-4.85-3.86-3.2 5-.32zM56.97 7.23l1.85 4.65 5 .32-3.86 3.2 1.24 4.85-4.23-2.68-4.23 2.68 1.24-4.85-3.86-3.2 5-.32zM56.97 24.11l1.85 4.65 5 .32-3.86 3.2 1.24 4.85-4.23-2.67-4.23 2.68 1.24-4.86-3.86-3.19 5-.33zM56.97 40.99l1.85 4.66 5 .32-3.86 3.2 1.24 4.85-4.23-2.68-4.23 2.68 1.24-4.85-3.86-3.2 5-.32zM15.9 57.88l1.85 4.65 5 .32-3.86 3.2 1.25 4.85-4.24-2.68-4.23 2.68 1.24-4.85-3.86-3.2 5-.32zM15.9 40.99l1.85 4.66 5 .32-3.86 3.2 1.25 4.85-4.24-2.68-4.23 2.68 1.24-4.85-3.86-3.2 5-.32zM36.44 57.88l1.85 4.65 4.99.32-3.85 3.2 1.24 4.85-4.23-2.68-4.24 2.68 1.24-4.85-3.85-3.2 5-.32zM36.44 24.11l1.85 4.65 4.99.32-3.85 3.2 1.24 4.85-4.23-2.67-4.24 2.68 1.24-4.86-3.85-3.19 5-.33zM36.44 40.99l1.85 4.66 4.99.32-3.85 3.2 1.24 4.85-4.23-2.68-4.24 2.68 1.24-4.85-3.85-3.2 5-.32z"/>
  </g>
</svg>
